<svg width="283" height="1631" viewBox="0 0 283 1631" fill="none" xmlns="http://www.w3.org/2000/svg">
<rect width="86" height="50" rx="9" fill="#D3CEFF"/>
<rect y="76" width="174" height="50" rx="9" fill="#ACC5F4"/>
<rect y="161" width="174" height="50" rx="9" fill="#96E0E4"/>
<rect y="246" width="213" height="50" rx="9" fill="#AEC8B2"/>
<rect y="331" width="240" height="50" rx="9" fill="#C8DC77"/>
<rect y="416" width="283" height="50" rx="9" fill="#FDB745"/>
<rect y="501" width="240" height="51" rx="9" fill="#FFD1A0"/>
<rect y="585" width="213" height="51" rx="9" fill="#FF8747"/>
<rect y="662" width="174" height="51" rx="9" fill="#FF6B5B"/>
<rect y="747" width="125" height="51" rx="9" fill="#FF8190"/>
<rect y="833" width="86" height="50" rx="9" fill="#D3CEFF"/>
<rect y="909" width="174" height="50" rx="9" fill="#ACC5F4"/>
<rect y="994" width="174" height="50" rx="9" fill="#96E0E4"/>
<rect y="1079" width="213" height="50" rx="9" fill="#AEC8B2"/>
<rect y="1164" width="240" height="50" rx="9" fill="#C8DC77"/>
<rect y="1249" width="283" height="50" rx="9" fill="#FDB745"/>
<rect y="1334" width="240" height="51" rx="9" fill="#FFD1A0"/>
<rect y="1418" width="213" height="51" rx="9" fill="#FF8747"/>
<rect y="1495" width="174" height="51" rx="9" fill="#FF6B5B"/>
<rect y="1580" width="125" height="51" rx="9" fill="#FF8190"/>
<rect y="76" width="174" height="50" rx="9" fill="#ACC5F4"/>
<rect y="909" width="174" height="50" rx="9" fill="#ACC5F4"/>
<rect y="161" width="174" height="50" rx="9" fill="#96E0E4"/>
<rect y="994" width="174" height="50" rx="9" fill="#96E0E4"/>
<rect y="246" width="213" height="50" rx="9" fill="#AEC8B2"/>
<rect y="1079" width="213" height="50" rx="9" fill="#AEC8B2"/>
<rect y="331" width="240" height="50" rx="9" fill="#C8DC77"/>
<rect y="1164" width="240" height="50" rx="9" fill="#C8DC77"/>
<rect y="416" width="283" height="50" rx="9" fill="#FDB745"/>
<rect y="1249" width="283" height="50" rx="9" fill="#FDB745"/>
<rect y="501" width="240" height="51" rx="9" fill="#FFD1A0"/>
<rect y="1334" width="240" height="51" rx="9" fill="#FFD1A0"/>
<rect y="585" width="213" height="51" rx="9" fill="#FF8747"/>
<rect y="1418" width="213" height="51" rx="9" fill="#FF8747"/>
<rect y="662" width="174" height="51" rx="9" fill="#FF6B5B"/>
<rect y="1495" width="174" height="51" rx="9" fill="#FF6B5B"/>
<rect y="747" width="125" height="51" rx="9" fill="#FF8190"/>
<rect y="1580" width="125" height="51" rx="9" fill="#FF8190"/>
</svg>
