<svg width="149" height="64" viewBox="0 0 149 64" fill="none" xmlns="http://www.w3.org/2000/svg">
<path d="M3.8 19.04C3.24 19.04 2.68667 18.9533 2.14 18.78C1.59333 18.6067 1.14667 18.3667 0.8 18.06L1.94 15.84C2.18 16.0533 2.45333 16.22 2.76 16.34C3.08 16.46 3.39333 16.52 3.7 16.52C4.14 16.52 4.48667 16.4133 4.74 16.2C5.00667 16 5.24667 15.66 5.46 15.18L6.02 13.86L6.26 13.52L10.12 4.24H13.12L8.26 15.66C7.91333 16.5267 7.51333 17.2067 7.06 17.7C6.62 18.1933 6.12667 18.54 5.58 18.74C5.04667 18.94 4.45333 19.04 3.8 19.04ZM5.64 15.42L0.84 4.24H4.06L7.78 13.24L5.64 15.42ZM19.2202 15.16C18.0735 15.16 17.0535 14.92 16.1602 14.44C15.2802 13.96 14.5802 13.3067 14.0602 12.48C13.5535 11.64 13.3002 10.6867 13.3002 9.62C13.3002 8.54 13.5535 7.58667 14.0602 6.76C14.5802 5.92 15.2802 5.26667 16.1602 4.8C17.0535 4.32 18.0735 4.08 19.2202 4.08C20.3535 4.08 21.3668 4.32 22.2602 4.8C23.1535 5.26667 23.8535 5.91333 24.3602 6.74C24.8668 7.56667 25.1202 8.52667 25.1202 9.62C25.1202 10.6867 24.8668 11.64 24.3602 12.48C23.8535 13.3067 23.1535 13.96 22.2602 14.44C21.3668 14.92 20.3535 15.16 19.2202 15.16ZM19.2202 12.6C19.7402 12.6 20.2068 12.48 20.6202 12.24C21.0335 12 21.3602 11.66 21.6002 11.22C21.8402 10.7667 21.9602 10.2333 21.9602 9.62C21.9602 8.99333 21.8402 8.46 21.6002 8.02C21.3602 7.58 21.0335 7.24 20.6202 7C20.2068 6.76 19.7402 6.64 19.2202 6.64C18.7002 6.64 18.2335 6.76 17.8202 7C17.4068 7.24 17.0735 7.58 16.8202 8.02C16.5802 8.46 16.4602 8.99333 16.4602 9.62C16.4602 10.2333 16.5802 10.7667 16.8202 11.22C17.0735 11.66 17.4068 12 17.8202 12.24C18.2335 12.48 18.7002 12.6 19.2202 12.6ZM31.7456 15.16C30.8523 15.16 30.0523 14.9867 29.3456 14.64C28.6523 14.2933 28.1123 13.7667 27.7256 13.06C27.339 12.34 27.1456 11.4267 27.1456 10.32V4.24H30.2656V9.86C30.2656 10.7533 30.4523 11.4133 30.8256 11.84C31.2123 12.2533 31.7523 12.46 32.4456 12.46C32.9256 12.46 33.3523 12.36 33.7256 12.16C34.099 11.9467 34.3923 11.6267 34.6056 11.2C34.819 10.76 34.9256 10.2133 34.9256 9.56V4.24H38.0456V15H35.0856V12.04L35.6256 12.9C35.2656 13.6467 34.7323 14.2133 34.0256 14.6C33.3323 14.9733 32.5723 15.16 31.7456 15.16ZM40.9361 15V4.24H43.9161V7.28L43.4961 6.4C43.8161 5.64 44.3294 5.06667 45.0361 4.68C45.7428 4.28 46.6028 4.08 47.6161 4.08V6.96C47.4828 6.94667 47.3628 6.94 47.2561 6.94C47.1494 6.92667 47.0361 6.92 46.9161 6.92C46.0628 6.92 45.3694 7.16667 44.8361 7.66C44.3161 8.14 44.0561 8.89333 44.0561 9.92V15H40.9361ZM61.7534 4.08C62.6068 4.08 63.3668 4.25333 64.0334 4.6C64.7134 4.93333 65.2468 5.45333 65.6334 6.16C66.0201 6.85333 66.2134 7.74667 66.2134 8.84V15H63.0934V9.32C63.0934 8.45333 62.9001 7.81333 62.5134 7.4C62.1401 6.98667 61.6068 6.78 60.9134 6.78C60.4201 6.78 59.9734 6.88667 59.5734 7.1C59.1868 7.3 58.8801 7.61333 58.6534 8.04C58.4401 8.46667 58.3334 9.01333 58.3334 9.68V15H55.2134V0.159999H58.3334V7.22L57.6334 6.32C58.0201 5.6 58.5734 5.04667 59.2934 4.66C60.0134 4.27333 60.8334 4.08 61.7534 4.08ZM74.2397 15.16C73.093 15.16 72.073 14.92 71.1797 14.44C70.2997 13.96 69.5997 13.3067 69.0797 12.48C68.573 11.64 68.3197 10.6867 68.3197 9.62C68.3197 8.54 68.573 7.58667 69.0797 6.76C69.5997 5.92 70.2997 5.26667 71.1797 4.8C72.073 4.32 73.093 4.08 74.2397 4.08C75.373 4.08 76.3864 4.32 77.2797 4.8C78.173 5.26667 78.873 5.91333 79.3797 6.74C79.8864 7.56667 80.1397 8.52667 80.1397 9.62C80.1397 10.6867 79.8864 11.64 79.3797 12.48C78.873 13.3067 78.173 13.96 77.2797 14.44C76.3864 14.92 75.373 15.16 74.2397 15.16ZM74.2397 12.6C74.7597 12.6 75.2264 12.48 75.6397 12.24C76.053 12 76.3797 11.66 76.6197 11.22C76.8597 10.7667 76.9797 10.2333 76.9797 9.62C76.9797 8.99333 76.8597 8.46 76.6197 8.02C76.3797 7.58 76.053 7.24 75.6397 7C75.2264 6.76 74.7597 6.64 74.2397 6.64C73.7197 6.64 73.253 6.76 72.8397 7C72.4264 7.24 72.093 7.58 71.8397 8.02C71.5997 8.46 71.4797 8.99333 71.4797 9.62C71.4797 10.2333 71.5997 10.7667 71.8397 11.22C72.093 11.66 72.4264 12 72.8397 12.24C73.253 12.48 73.7197 12.6 74.2397 12.6ZM96.0052 4.08C96.8585 4.08 97.6118 4.25333 98.2652 4.6C98.9318 4.93333 99.4518 5.45333 99.8252 6.16C100.212 6.85333 100.405 7.74667 100.405 8.84V15H97.2852V9.32C97.2852 8.45333 97.1052 7.81333 96.7452 7.4C96.3852 6.98667 95.8785 6.78 95.2252 6.78C94.7718 6.78 94.3652 6.88667 94.0052 7.1C93.6452 7.3 93.3652 7.60667 93.1652 8.02C92.9652 8.43333 92.8652 8.96 92.8652 9.6V15H89.7452V9.32C89.7452 8.45333 89.5652 7.81333 89.2052 7.4C88.8585 6.98667 88.3585 6.78 87.7052 6.78C87.2518 6.78 86.8452 6.88667 86.4852 7.1C86.1252 7.3 85.8452 7.60667 85.6452 8.02C85.4452 8.43333 85.3452 8.96 85.3452 9.6V15H82.2252V4.24H85.2052V7.18L84.6452 6.32C85.0185 5.58667 85.5452 5.03333 86.2252 4.66C86.9185 4.27333 87.7052 4.08 88.5852 4.08C89.5718 4.08 90.4318 4.33333 91.1652 4.84C91.9118 5.33333 92.4052 6.09333 92.6452 7.12L91.5452 6.82C91.9052 5.98 92.4785 5.31333 93.2652 4.82C94.0652 4.32667 94.9785 4.08 96.0052 4.08ZM108.62 15.16C107.393 15.16 106.313 14.92 105.38 14.44C104.46 13.96 103.747 13.3067 103.24 12.48C102.733 11.64 102.48 10.6867 102.48 9.62C102.48 8.54 102.727 7.58667 103.22 6.76C103.727 5.92 104.413 5.26667 105.28 4.8C106.147 4.32 107.127 4.08 108.22 4.08C109.273 4.08 110.22 4.30667 111.06 4.76C111.913 5.2 112.587 5.84 113.08 6.68C113.573 7.50667 113.82 8.5 113.82 9.66C113.82 9.78 113.813 9.92 113.8 10.08C113.787 10.2267 113.773 10.3667 113.76 10.5H105.02V8.68H112.12L110.92 9.22C110.92 8.66 110.807 8.17333 110.58 7.76C110.353 7.34667 110.04 7.02667 109.64 6.8C109.24 6.56 108.773 6.44 108.24 6.44C107.707 6.44 107.233 6.56 106.82 6.8C106.42 7.02667 106.107 7.35333 105.88 7.78C105.653 8.19333 105.54 8.68667 105.54 9.26V9.74C105.54 10.3267 105.667 10.8467 105.92 11.3C106.187 11.74 106.553 12.08 107.02 12.32C107.5 12.5467 108.06 12.66 108.7 12.66C109.273 12.66 109.773 12.5733 110.2 12.4C110.64 12.2267 111.04 11.9667 111.4 11.62L113.06 13.42C112.567 13.98 111.947 14.4133 111.2 14.72C110.453 15.0133 109.593 15.16 108.62 15.16ZM121.941 15V4C121.941 2.78667 122.301 1.82 123.021 1.1C123.741 0.366666 124.768 -1.19209e-06 126.101 -1.19209e-06C126.554 -1.19209e-06 126.988 0.0466657 127.401 0.139999C127.828 0.233332 128.188 0.379999 128.481 0.58L127.661 2.84C127.488 2.72 127.294 2.62667 127.081 2.56C126.868 2.49333 126.641 2.46 126.401 2.46C125.948 2.46 125.594 2.59333 125.341 2.86C125.101 3.11333 124.981 3.5 124.981 4.02V5.02L125.061 6.36V15H121.941ZM120.281 6.88V4.48H127.741V6.88H120.281ZM134.279 15.16C133.132 15.16 132.112 14.92 131.219 14.44C130.339 13.96 129.639 13.3067 129.119 12.48C128.612 11.64 128.359 10.6867 128.359 9.62C128.359 8.54 128.612 7.58667 129.119 6.76C129.639 5.92 130.339 5.26667 131.219 4.8C132.112 4.32 133.132 4.08 134.279 4.08C135.412 4.08 136.425 4.32 137.319 4.8C138.212 5.26667 138.912 5.91333 139.419 6.74C139.925 7.56667 140.179 8.52667 140.179 9.62C140.179 10.6867 139.925 11.64 139.419 12.48C138.912 13.3067 138.212 13.96 137.319 14.44C136.425 14.92 135.412 15.16 134.279 15.16ZM134.279 12.6C134.799 12.6 135.265 12.48 135.679 12.24C136.092 12 136.419 11.66 136.659 11.22C136.899 10.7667 137.019 10.2333 137.019 9.62C137.019 8.99333 136.899 8.46 136.659 8.02C136.419 7.58 136.092 7.24 135.679 7C135.265 6.76 134.799 6.64 134.279 6.64C133.759 6.64 133.292 6.76 132.879 7C132.465 7.24 132.132 7.58 131.879 8.02C131.639 8.46 131.519 8.99333 131.519 9.62C131.519 10.2333 131.639 10.7667 131.879 11.22C132.132 11.66 132.465 12 132.879 12.24C133.292 12.48 133.759 12.6 134.279 12.6ZM142.264 15V4.24H145.244V7.28L144.824 6.4C145.144 5.64 145.658 5.06667 146.364 4.68C147.071 4.28 147.931 4.08 148.944 4.08V6.96C148.811 6.94667 148.691 6.94 148.584 6.94C148.478 6.92667 148.364 6.92 148.244 6.92C147.391 6.92 146.698 7.16667 146.164 7.66C145.644 8.14 145.384 8.89333 145.384 9.92V15H142.264ZM45.0653 39.16C44.532 39.16 44.072 38.98 43.6853 38.62C43.312 38.2467 43.1253 37.7733 43.1253 37.2C43.1253 36.6267 43.312 36.1667 43.6853 35.82C44.072 35.46 44.532 35.28 45.0653 35.28C45.612 35.28 46.072 35.46 46.4453 35.82C46.8186 36.1667 47.0053 36.6267 47.0053 37.2C47.0053 37.7733 46.8186 38.2467 46.4453 38.62C46.072 38.98 45.612 39.16 45.0653 39.16Z" fill="#5994FF"/>
<path d="M2.22 39V28.16H5.84V31.32L5.3 30.42C5.62 29.6067 6.14 29 6.86 28.6C7.58 28.1867 8.45333 27.98 9.48 27.98V31.4C9.30667 31.3733 9.15333 31.36 9.02 31.36C8.9 31.3467 8.76667 31.34 8.62 31.34C7.84667 31.34 7.22 31.5533 6.74 31.98C6.26 32.3933 6.02 33.0733 6.02 34.02V39H2.22ZM16.6305 39.18C15.3505 39.18 14.2305 38.94 13.2705 38.46C12.3238 37.9667 11.5838 37.3 11.0505 36.46C10.5305 35.6067 10.2705 34.64 10.2705 33.56C10.2705 32.48 10.5238 31.52 11.0305 30.68C11.5505 29.8267 12.2638 29.1667 13.1705 28.7C14.0771 28.22 15.0971 27.98 16.2305 27.98C17.2971 27.98 18.2705 28.2 19.1505 28.64C20.0305 29.0667 20.7305 29.7 21.2505 30.54C21.7705 31.38 22.0305 32.4 22.0305 33.6C22.0305 33.7333 22.0238 33.8867 22.0105 34.06C21.9971 34.2333 21.9838 34.3933 21.9705 34.54H13.3905V32.54H19.9505L18.5105 33.1C18.5238 32.6067 18.4305 32.18 18.2305 31.82C18.0438 31.46 17.7771 31.18 17.4305 30.98C17.0971 30.78 16.7038 30.68 16.2505 30.68C15.7971 30.68 15.3971 30.78 15.0505 30.98C14.7171 31.18 14.4571 31.4667 14.2705 31.84C14.0838 32.2 13.9905 32.6267 13.9905 33.12V33.7C13.9905 34.2333 14.0971 34.6933 14.3105 35.08C14.5371 35.4667 14.8571 35.7667 15.2705 35.98C15.6838 36.18 16.1771 36.28 16.7505 36.28C17.2838 36.28 17.7371 36.2067 18.1105 36.06C18.4971 35.9 18.8771 35.66 19.2505 35.34L21.2505 37.42C20.7305 37.9933 20.0905 38.4333 19.3305 38.74C18.5705 39.0333 17.6705 39.18 16.6305 39.18ZM27.7225 39.18C26.8025 39.18 25.9025 39.0733 25.0225 38.86C24.1558 38.6467 23.4558 38.38 22.9225 38.06L24.0625 35.46C24.5692 35.7667 25.1625 36.0133 25.8425 36.2C26.5225 36.3733 27.1892 36.46 27.8425 36.46C28.4825 36.46 28.9225 36.3933 29.1625 36.26C29.4158 36.1267 29.5425 35.9467 29.5425 35.72C29.5425 35.5067 29.4225 35.3533 29.1825 35.26C28.9558 35.1533 28.6492 35.0733 28.2625 35.02C27.8892 34.9667 27.4758 34.9067 27.0225 34.84C26.5692 34.7733 26.1092 34.6867 25.6425 34.58C25.1892 34.46 24.7692 34.2867 24.3825 34.06C24.0092 33.82 23.7092 33.5 23.4825 33.1C23.2558 32.7 23.1425 32.1933 23.1425 31.58C23.1425 30.8867 23.3425 30.2733 23.7425 29.74C24.1558 29.1933 24.7558 28.7667 25.5425 28.46C26.3292 28.14 27.2892 27.98 28.4225 27.98C29.1825 27.98 29.9492 28.06 30.7225 28.22C31.5092 28.3667 32.1692 28.5933 32.7025 28.9L31.5625 31.48C31.0292 31.1733 30.4958 30.9667 29.9625 30.86C29.4292 30.74 28.9225 30.68 28.4425 30.68C27.8025 30.68 27.3492 30.7533 27.0825 30.9C26.8292 31.0467 26.7025 31.2267 26.7025 31.44C26.7025 31.6533 26.8158 31.82 27.0425 31.94C27.2692 32.0467 27.5692 32.1333 27.9425 32.2C28.3292 32.2533 28.7492 32.3133 29.2025 32.38C29.6558 32.4333 30.1092 32.52 30.5625 32.64C31.0292 32.76 31.4492 32.94 31.8225 33.18C32.2092 33.4067 32.5158 33.72 32.7425 34.12C32.9692 34.5067 33.0825 35.0067 33.0825 35.62C33.0825 36.2867 32.8758 36.8867 32.4625 37.42C32.0625 37.9533 31.4625 38.38 30.6625 38.7C29.8758 39.02 28.8958 39.18 27.7225 39.18ZM39.56 39.18C38.1733 39.18 37.0933 38.84 36.32 38.16C35.5467 37.4667 35.16 36.4267 35.16 35.04V25.74H38.96V35C38.96 35.3867 39.0667 35.6933 39.28 35.92C39.4933 36.1333 39.7667 36.24 40.1 36.24C40.5533 36.24 40.94 36.1267 41.26 35.9L42.2 38.56C41.88 38.7733 41.4867 38.9267 41.02 39.02C40.5533 39.1267 40.0667 39.18 39.56 39.18ZM33.58 31.4V28.56H41.44V31.4H33.58ZM59.4038 39.18C58.0171 39.18 56.9371 38.84 56.1638 38.16C55.3904 37.4667 55.0038 36.4267 55.0038 35.04V25.74H58.8038V35C58.8038 35.3867 58.9104 35.6933 59.1238 35.92C59.3371 36.1333 59.6104 36.24 59.9438 36.24C60.3971 36.24 60.7838 36.1267 61.1038 35.9L62.0438 38.56C61.7238 38.7733 61.3304 38.9267 60.8638 39.02C60.3971 39.1267 59.9104 39.18 59.4038 39.18ZM53.4238 31.4V28.56H61.2838V31.4H53.4238ZM70.5691 27.98C71.4091 27.98 72.1691 28.1533 72.8491 28.5C73.5291 28.8333 74.0624 29.3533 74.4491 30.06C74.8491 30.7667 75.0491 31.68 75.0491 32.8V39H71.2491V33.42C71.2491 32.6467 71.0891 32.0867 70.7691 31.74C70.4624 31.38 70.0291 31.2 69.4691 31.2C69.0691 31.2 68.7024 31.2933 68.3691 31.48C68.0357 31.6533 67.7757 31.9267 67.5891 32.3C67.4024 32.6733 67.3091 33.16 67.3091 33.76V39H63.5091V24.16H67.3091V31.24L66.4291 30.34C66.8424 29.5533 67.4091 28.9667 68.1291 28.58C68.8491 28.18 69.6624 27.98 70.5691 27.98ZM83.0116 39.18C81.8249 39.18 80.7716 38.94 79.8516 38.46C78.9316 37.98 78.2049 37.32 77.6716 36.48C77.1516 35.6267 76.8916 34.6533 76.8916 33.56C76.8916 32.4667 77.1516 31.5 77.6716 30.66C78.2049 29.82 78.9316 29.1667 79.8516 28.7C80.7716 28.22 81.8249 27.98 83.0116 27.98C84.1982 27.98 85.2516 28.22 86.1716 28.7C87.1049 29.1667 87.8316 29.82 88.3516 30.66C88.8716 31.5 89.1316 32.4667 89.1316 33.56C89.1316 34.6533 88.8716 35.6267 88.3516 36.48C87.8316 37.32 87.1049 37.98 86.1716 38.46C85.2516 38.94 84.1982 39.18 83.0116 39.18ZM83.0116 36.16C83.4516 36.16 83.8382 36.06 84.1716 35.86C84.5182 35.66 84.7916 35.3667 84.9916 34.98C85.1916 34.58 85.2916 34.1067 85.2916 33.56C85.2916 33.0133 85.1916 32.5533 84.9916 32.18C84.7916 31.7933 84.5182 31.5 84.1716 31.3C83.8382 31.1 83.4516 31 83.0116 31C82.5849 31 82.1982 31.1 81.8516 31.3C81.5182 31.5 81.2449 31.7933 81.0316 32.18C80.8316 32.5533 80.7316 33.0133 80.7316 33.56C80.7316 34.1067 80.8316 34.58 81.0316 34.98C81.2449 35.3667 81.5182 35.66 81.8516 35.86C82.1982 36.06 82.5849 36.16 83.0116 36.16ZM95.4519 39.18C94.5719 39.18 93.7785 39.0067 93.0719 38.66C92.3785 38.3133 91.8319 37.7733 91.4319 37.04C91.0452 36.2933 90.8519 35.3533 90.8519 34.22V28.16H94.6519V33.6C94.6519 34.44 94.8052 35.04 95.1119 35.4C95.4319 35.76 95.8785 35.94 96.4519 35.94C96.8252 35.94 97.1652 35.8533 97.4719 35.68C97.7785 35.5067 98.0252 35.2333 98.2119 34.86C98.3985 34.4733 98.4919 33.98 98.4919 33.38V28.16H102.292V39H98.6719V35.94L99.3719 36.8C98.9985 37.6 98.4585 38.2 97.7519 38.6C97.0452 38.9867 96.2785 39.18 95.4519 39.18ZM110.04 43.06C109 43.06 108.006 42.94 107.06 42.7C106.126 42.46 105.326 42.1067 104.66 41.64L106.04 38.98C106.493 39.34 107.053 39.62 107.72 39.82C108.4 40.0333 109.06 40.14 109.7 40.14C110.726 40.14 111.466 39.9133 111.92 39.46C112.373 39.02 112.6 38.3733 112.6 37.52V36.24L112.8 33.2L112.78 30.14V28.16H116.4V37.02C116.4 39.0733 115.846 40.5933 114.74 41.58C113.633 42.5667 112.066 43.06 110.04 43.06ZM109.38 38.44C108.42 38.44 107.533 38.2267 106.72 37.8C105.92 37.36 105.273 36.7533 104.78 35.98C104.3 35.1933 104.06 34.2667 104.06 33.2C104.06 32.1333 104.3 31.2133 104.78 30.44C105.273 29.6533 105.92 29.0467 106.72 28.62C107.533 28.1933 108.42 27.98 109.38 27.98C110.3 27.98 111.086 28.1667 111.74 28.54C112.393 28.9 112.886 29.4667 113.22 30.24C113.566 31.0133 113.74 32 113.74 33.2C113.74 34.4 113.566 35.3867 113.22 36.16C112.886 36.9333 112.393 37.5067 111.74 37.88C111.086 38.2533 110.3 38.44 109.38 38.44ZM110.28 35.42C110.733 35.42 111.133 35.3267 111.48 35.14C111.84 34.9533 112.12 34.6933 112.32 34.36C112.533 34.0267 112.64 33.64 112.64 33.2C112.64 32.76 112.533 32.3733 112.32 32.04C112.12 31.7067 111.84 31.4533 111.48 31.28C111.133 31.0933 110.733 31 110.28 31C109.826 31 109.42 31.0933 109.06 31.28C108.7 31.4533 108.413 31.7067 108.2 32.04C108 32.3733 107.9 32.76 107.9 33.2C107.9 33.64 108 34.0267 108.2 34.36C108.413 34.6933 108.7 34.9533 109.06 35.14C109.42 35.3267 109.826 35.42 110.28 35.42ZM125.901 27.98C126.741 27.98 127.501 28.1533 128.181 28.5C128.861 28.8333 129.394 29.3533 129.781 30.06C130.181 30.7667 130.381 31.68 130.381 32.8V39H126.581V33.42C126.581 32.6467 126.421 32.0867 126.101 31.74C125.794 31.38 125.361 31.2 124.801 31.2C124.401 31.2 124.034 31.2933 123.701 31.48C123.368 31.6533 123.108 31.9267 122.921 32.3C122.734 32.6733 122.641 33.16 122.641 33.76V39H118.841V24.16H122.641V31.24L121.761 30.34C122.174 29.5533 122.741 28.9667 123.461 28.58C124.181 28.18 124.994 27.98 125.901 27.98ZM137.607 39.18C136.22 39.18 135.14 38.84 134.367 38.16C133.594 37.4667 133.207 36.4267 133.207 35.04V25.74H137.007V35C137.007 35.3867 137.114 35.6933 137.327 35.92C137.54 36.1333 137.814 36.24 138.147 36.24C138.6 36.24 138.987 36.1267 139.307 35.9L140.247 38.56C139.927 38.7733 139.534 38.9267 139.067 39.02C138.6 39.1267 138.114 39.18 137.607 39.18ZM131.627 31.4V28.56H139.487V31.4H131.627ZM143.112 39.16C142.579 39.16 142.119 38.98 141.732 38.62C141.359 38.2467 141.172 37.7733 141.172 37.2C141.172 36.6267 141.359 36.1667 141.732 35.82C142.119 35.46 142.579 35.28 143.112 35.28C143.659 35.28 144.119 35.46 144.492 35.82C144.866 36.1667 145.052 36.6267 145.052 37.2C145.052 37.7733 144.866 38.2467 144.492 38.62C144.119 38.98 143.659 39.16 143.112 39.16Z" fill="#005BFF"/>
<path d="M2.22 63V52.16H5.84V55.32L5.3 54.42C5.62 53.6067 6.14 53 6.86 52.6C7.58 52.1867 8.45333 51.98 9.48 51.98V55.4C9.30667 55.3733 9.15333 55.36 9.02 55.36C8.9 55.3467 8.76667 55.34 8.62 55.34C7.84667 55.34 7.22 55.5533 6.74 55.98C6.26 56.3933 6.02 57.0733 6.02 58.02V63H2.22ZM16.6305 63.18C15.3505 63.18 14.2305 62.94 13.2705 62.46C12.3238 61.9667 11.5838 61.3 11.0505 60.46C10.5305 59.6067 10.2705 58.64 10.2705 57.56C10.2705 56.48 10.5238 55.52 11.0305 54.68C11.5505 53.8267 12.2638 53.1667 13.1705 52.7C14.0771 52.22 15.0971 51.98 16.2305 51.98C17.2971 51.98 18.2705 52.2 19.1505 52.64C20.0305 53.0667 20.7305 53.7 21.2505 54.54C21.7705 55.38 22.0305 56.4 22.0305 57.6C22.0305 57.7333 22.0238 57.8867 22.0105 58.06C21.9971 58.2333 21.9838 58.3933 21.9705 58.54H13.3905V56.54H19.9505L18.5105 57.1C18.5238 56.6067 18.4305 56.18 18.2305 55.82C18.0438 55.46 17.7771 55.18 17.4305 54.98C17.0971 54.78 16.7038 54.68 16.2505 54.68C15.7971 54.68 15.3971 54.78 15.0505 54.98C14.7171 55.18 14.4571 55.4667 14.2705 55.84C14.0838 56.2 13.9905 56.6267 13.9905 57.12V57.7C13.9905 58.2333 14.0971 58.6933 14.3105 59.08C14.5371 59.4667 14.8571 59.7667 15.2705 59.98C15.6838 60.18 16.1771 60.28 16.7505 60.28C17.2838 60.28 17.7371 60.2067 18.1105 60.06C18.4971 59.9 18.8771 59.66 19.2505 59.34L21.2505 61.42C20.7305 61.9933 20.0905 62.4333 19.3305 62.74C18.5705 63.0333 17.6705 63.18 16.6305 63.18ZM24.2225 63V52.28C24.2225 50.9733 24.6092 49.9333 25.3825 49.16C26.1692 48.3733 27.2892 47.98 28.7425 47.98C29.2092 47.98 29.6692 48.0267 30.1225 48.12C30.5758 48.2133 30.9558 48.3533 31.2625 48.54L30.3225 51.22C30.1625 51.1267 29.9825 51.0533 29.7825 51C29.5825 50.9333 29.3825 50.9 29.1825 50.9C28.7825 50.9 28.4692 51.02 28.2425 51.26C28.0292 51.4867 27.9225 51.84 27.9225 52.32V53.1L28.0225 54.68V63H24.2225ZM22.6425 55.4V52.56H30.5025V55.4H22.6425ZM32.2425 63V48.16H36.0425V63H32.2425ZM44.1891 63.18C42.9091 63.18 41.7891 62.94 40.8291 62.46C39.8824 61.9667 39.1424 61.3 38.6091 60.46C38.0891 59.6067 37.8291 58.64 37.8291 57.56C37.8291 56.48 38.0824 55.52 38.5891 54.68C39.1091 53.8267 39.8224 53.1667 40.7291 52.7C41.6357 52.22 42.6557 51.98 43.7891 51.98C44.8557 51.98 45.8291 52.2 46.7091 52.64C47.5891 53.0667 48.2891 53.7 48.8091 54.54C49.3291 55.38 49.5891 56.4 49.5891 57.6C49.5891 57.7333 49.5824 57.8867 49.5691 58.06C49.5557 58.2333 49.5424 58.3933 49.5291 58.54H40.9491V56.54H47.5091L46.0691 57.1C46.0824 56.6067 45.9891 56.18 45.7891 55.82C45.6024 55.46 45.3357 55.18 44.9891 54.98C44.6557 54.78 44.2624 54.68 43.8091 54.68C43.3557 54.68 42.9557 54.78 42.6091 54.98C42.2757 55.18 42.0157 55.4667 41.8291 55.84C41.6424 56.2 41.5491 56.6267 41.5491 57.12V57.7C41.5491 58.2333 41.6557 58.6933 41.8691 59.08C42.0957 59.4667 42.4157 59.7667 42.8291 59.98C43.2424 60.18 43.7357 60.28 44.3091 60.28C44.8424 60.28 45.2957 60.2067 45.6691 60.06C46.0557 59.9 46.4357 59.66 46.8091 59.34L48.8091 61.42C48.2891 61.9933 47.6491 62.4333 46.8891 62.74C46.1291 63.0333 45.2291 63.18 44.1891 63.18ZM56.8811 63.18C55.6811 63.18 54.6078 62.94 53.6611 62.46C52.7278 61.98 51.9944 61.32 51.4611 60.48C50.9278 59.6267 50.6611 58.6533 50.6611 57.56C50.6611 56.4667 50.9278 55.5 51.4611 54.66C51.9944 53.82 52.7278 53.1667 53.6611 52.7C54.6078 52.22 55.6811 51.98 56.8811 51.98C58.1078 51.98 59.1678 52.24 60.0611 52.76C60.9544 53.28 61.5878 54.0133 61.9611 54.96L59.0211 56.46C58.7678 55.9533 58.4544 55.5867 58.0811 55.36C57.7078 55.12 57.3011 55 56.8611 55C56.4211 55 56.0211 55.1 55.6611 55.3C55.3011 55.5 55.0144 55.7933 54.8011 56.18C54.6011 56.5533 54.5011 57.0133 54.5011 57.56C54.5011 58.12 54.6011 58.5933 54.8011 58.98C55.0144 59.3667 55.3011 59.66 55.6611 59.86C56.0211 60.06 56.4211 60.16 56.8611 60.16C57.3011 60.16 57.7078 60.0467 58.0811 59.82C58.4544 59.58 58.7678 59.2067 59.0211 58.7L61.9611 60.2C61.5878 61.1467 60.9544 61.88 60.0611 62.4C59.1678 62.92 58.1078 63.18 56.8811 63.18ZM68.4077 63.18C67.021 63.18 65.941 62.84 65.1677 62.16C64.3943 61.4667 64.0077 60.4267 64.0077 59.04V49.74H67.8077V59C67.8077 59.3867 67.9143 59.6933 68.1277 59.92C68.341 60.1333 68.6143 60.24 68.9477 60.24C69.401 60.24 69.7877 60.1267 70.1077 59.9L71.0477 62.56C70.7277 62.7733 70.3343 62.9267 69.8677 63.02C69.401 63.1267 68.9143 63.18 68.4077 63.18ZM62.4277 55.4V52.56H70.2877V55.4H62.4277ZM72.513 63V52.16H76.313V63H72.513ZM74.413 50.96C73.7196 50.96 73.1596 50.7667 72.733 50.38C72.3063 49.9933 72.093 49.5133 72.093 48.94C72.093 48.3667 72.3063 47.8867 72.733 47.5C73.1596 47.1133 73.7196 46.92 74.413 46.92C75.1063 46.92 75.6663 47.1067 76.093 47.48C76.5196 47.84 76.733 48.3067 76.733 48.88C76.733 49.48 76.5196 49.98 76.093 50.38C75.6796 50.7667 75.1196 50.96 74.413 50.96ZM84.2225 63.18C83.0358 63.18 81.9825 62.94 81.0625 62.46C80.1425 61.98 79.4158 61.32 78.8825 60.48C78.3625 59.6267 78.1025 58.6533 78.1025 57.56C78.1025 56.4667 78.3625 55.5 78.8825 54.66C79.4158 53.82 80.1425 53.1667 81.0625 52.7C81.9825 52.22 83.0358 51.98 84.2225 51.98C85.4092 51.98 86.4625 52.22 87.3825 52.7C88.3158 53.1667 89.0425 53.82 89.5625 54.66C90.0825 55.5 90.3425 56.4667 90.3425 57.56C90.3425 58.6533 90.0825 59.6267 89.5625 60.48C89.0425 61.32 88.3158 61.98 87.3825 62.46C86.4625 62.94 85.4092 63.18 84.2225 63.18ZM84.2225 60.16C84.6625 60.16 85.0492 60.06 85.3825 59.86C85.7292 59.66 86.0025 59.3667 86.2025 58.98C86.4025 58.58 86.5025 58.1067 86.5025 57.56C86.5025 57.0133 86.4025 56.5533 86.2025 56.18C86.0025 55.7933 85.7292 55.5 85.3825 55.3C85.0492 55.1 84.6625 55 84.2225 55C83.7958 55 83.4092 55.1 83.0625 55.3C82.7292 55.5 82.4558 55.7933 82.2425 56.18C82.0425 56.5533 81.9425 57.0133 81.9425 57.56C81.9425 58.1067 82.0425 58.58 82.2425 58.98C82.4558 59.3667 82.7292 59.66 83.0625 59.86C83.4092 60.06 83.7958 60.16 84.2225 60.16ZM99.1628 51.98C100.003 51.98 100.763 52.1533 101.443 52.5C102.123 52.8333 102.656 53.3533 103.043 54.06C103.443 54.7667 103.643 55.68 103.643 56.8V63H99.8428V57.42C99.8428 56.6467 99.6828 56.0867 99.3628 55.74C99.0561 55.38 98.6228 55.2 98.0628 55.2C97.6628 55.2 97.2961 55.2933 96.9628 55.48C96.6295 55.6533 96.3695 55.9267 96.1828 56.3C95.9961 56.6733 95.9028 57.16 95.9028 57.76V63H92.1028V52.16H95.7228V55.24L95.0228 54.34C95.4361 53.5533 96.0028 52.9667 96.7228 52.58C97.4428 52.18 98.2561 51.98 99.1628 51.98ZM107.429 63.16C106.895 63.16 106.435 62.98 106.049 62.62C105.675 62.2467 105.489 61.7733 105.489 61.2C105.489 60.6267 105.675 60.1667 106.049 59.82C106.435 59.46 106.895 59.28 107.429 59.28C107.975 59.28 108.435 59.46 108.809 59.82C109.182 60.1667 109.369 60.6267 109.369 61.2C109.369 61.7733 109.182 62.2467 108.809 62.62C108.435 62.98 107.975 63.16 107.429 63.16Z" fill="#5390FF"/>
</svg>
